<svg xmlns="http://www.w3.org/2000/svg" width="640" height="706"
     viewBox="0 0 640 706" font-family="'JetBrains Mono','Fira Code',Consolas,monospace">
  <defs>
    <clipPath id="infoClip">
      <rect x="0" y="0" width="640" height="706" rx="14" ry="14"/>
    </clipPath>
    <style>
      @keyframes fin {
        0%   { opacity: 0; transform: translateY(4px); }
        100% { opacity: 1; transform: translateY(0); }
      }
      .term-bg { fill: #0d0d0d; }
      .term-border { fill: none; stroke: #2a2a2a; stroke-width: 1.5; }
      .title { fill: #cfcfcf; font-size: 13px; font-weight: 600; letter-spacing: .5px; }
      .key { fill: #D4AF37; font-size: 13px; font-weight: 700; }
      .val { fill: #C9C9C9; font-size: 13px; }
      .dim { fill: #7a7a7a; font-size: 12px; }
      .row0{animation:fin .4s ease-out 0.0s both;} .row1{animation:fin .4s ease-out 0.123s both;} .row2{animation:fin .4s ease-out 0.246s both;} .row3{animation:fin .4s ease-out 0.369s both;} .row4{animation:fin .4s ease-out 0.492s both;} .row5{animation:fin .4s ease-out 0.615s both;} .row6{animation:fin .4s ease-out 0.738s both;} .row7{animation:fin .4s ease-out 0.862s both;} .row8{animation:fin .4s ease-out 0.985s both;} .row9{animation:fin .4s ease-out 1.108s both;} .row10{animation:fin .4s ease-out 1.231s both;} .row11{animation:fin .4s ease-out 1.354s both;} .row12{animation:fin .4s ease-out 1.477s both;} .row13{animation:fin .4s ease-out 1.6s both;}
    </style>
  </defs>

  <g clip-path="url(#infoClip)">
    <rect class="term-bg" x="0" y="0" width="640" height="706"/>
    <rect class="term-border" x="0.75" y="0.75" width="638.5" height="704.5" rx="14" ry="14"/>

    <rect x="0" y="0" width="640" height="34" fill="#161616"/>
    <line x1="0" y1="34" x2="640" y2="34" stroke="#2a2a2a" stroke-width="1"/>
    <circle cx="20" cy="17" r="5.5" fill="#ff5f56"/>
    <circle cx="38" cy="17" r="5.5" fill="#ffbd2e"/>
    <circle cx="56" cy="17" r="5.5" fill="#27c93f"/>
    

    <g class="row0"><text x="30" y="80" class="key">OS</text><text x="158" y="80" class="val">GitHub OS 24.04 LTS x86_64</text></g><g class="row1"><text x="30" y="110" class="key">Host</text><text x="158" y="110" class="val">nahidulsizan / Portfolio Server</text></g><g class="row2"><text x="30" y="140" class="key">Role</text><text x="158" y="140" class="val">BS in Computer Science @ UofR</text></g><g class="row3"><text x="30" y="170" class="key">Title</text><text x="158" y="170" class="val">Full-Stack Web Developer</text></g><g class="row4"><text x="30" y="200" class="key">Certs</text><text x="158" y="200" class="val">CISCO Cybersecurity | Google IT Support Professional</text></g><g class="row5"><text x="30" y="230" class="key">Location</text><text x="158" y="230" class="val">Regina, Saskatchewan, Canada</text></g><g class="row6"><text x="30" y="260" class="key">Frontend</text><text x="158" y="260" class="val">HTML · Tailwind CSS · Vanilla JS</text></g><g class="row7"><text x="30" y="290" class="key">Backend</text><text x="158" y="290" class="val">Node.js · Express · MySQL · MongoDB · PHP</text></g><g class="row8"><text x="30" y="320" class="key">Tools</text><text x="158" y="320" class="val">GitHub · VS Code · Wireshark · Kali · Parrot · VMware</text></g><g class="row9"><text x="30" y="350" class="key">Portfolio</text><text x="158" y="350" class="val">webdev.cs.uregina.ca/~nsx513</text></g><g class="row10"><text x="30" y="380" class="key">LinkedIn</text><text x="158" y="380" class="val">in/nahidul-islam-sizan-091280343</text></g><g class="row11"><text x="30" y="410" class="key">GitHub</text><text x="158" y="410" class="val">github.com/nahidulsizan</text></g><g class="row12"><text x="30" y="440" class="key">Email</text><text x="158" y="440" class="val">nahidulsizan@gmail.com</text></g>

    <line x1="30" y1="464" x2="610" y2="464" stroke="#2a2a2a" stroke-width="1"/>
    <g class="row13">
      <text x="30" y="486" class="dim">Palette</text>
      <rect x="30" y="498" width="16" height="16" rx="3" fill="#ff5f56"/><rect x="52" y="498" width="16" height="16" rx="3" fill="#ffbd2e"/><rect x="74" y="498" width="16" height="16" rx="3" fill="#27c93f"/><rect x="96" y="498" width="16" height="16" rx="3" fill="#4fc3f7"/><rect x="118" y="498" width="16" height="16" rx="3" fill="#b388ff"/><rect x="140" y="498" width="16" height="16" rx="3" fill="#ff8a80"/><rect x="162" y="498" width="16" height="16" rx="3" fill="#ffd54f"/><rect x="184" y="498" width="16" height="16" rx="3" fill="#80cbc4"/>
    </g>
  </g>
</svg>
